Phish 4/4/90 Set I 
University of Colorado, Boulder, CO 

Set I Source: SBD> CassX (recorded 12/96)
Transfer: Dennon DRW-840> Sony r500> Audiophile 2496> Samplitude 5.5 at 44.1> WAV> FLAC on 6/11/05 by EEE

Set II ource: SBD > Cass/4 > DAT > CDR > EAC (secure) > shntool > FLAC

Set I
1. Golgi Aparatus
2. You Enjoy Myself
3. Walk Away
4. Take the A-Train
5. Possum
6. Foam
7. The//Divided Sky
8. Carolina 

Set II
1. Mike's Song ->       (06:00)
2. I Am Hydrogen ->     (02:29)
3. Weekapaug Groove     (05:51)
4. Esther               (09:18)
5. Uncle Pen            (04:52)
6. Sloth                (03:43)
7. The Lizards          (09:58)
8. I Didn’t Know*       (04:20)
9. Good Times Bad Times (05:12)
Encore: 
10. Contact**           (05:54)
Encore 2:
11. Highway to Hell     (03:38)

-After A Train Trey remarks this is the first show in CO in two years. They are obviously pysched with their return as the crowd is yelling "Wilson Sucks" and it sounds like the place is generally going nuts. What venue at CU is this I wonder? Anyone?

-Gamehandge narrative before Divided Sky

SHNTOOL OUTPUT:

    length     expanded size   cdr  WAVE problems filename
     5:03.50       53566844    ---   --   -----   phish1990-04-04s1d1t01.wav
    14:31.50      153762044    ---   --   -----   phish1990-04-04s1d1t02.wav
     3:57.66       41962076    ---   --   -----   phish1990-04-04s1d1t03.wav
     6:30.18       68838380    ---   --   -----   phish1990-04-04s1d1t04.wav
     8:16.18       87536780    ---   --   -----   phish1990-04-04s1d1t05.wav
     8:16.33       87572060    ---   --   -----   phish1990-04-04s1d1t06.wav
    16:19.13      172726220    ---   --   -----   phish1990-04-04s1d1t07.wav
     1:27.32       15422108    ---   --   -----   phish1990-04-04s1d1t08.wav
    64:22.55      681386512 B                     (totals for 8 files, 1.0000 ov
erall compression ratio)
